<?xml version="1.0" encoding="UTF-8"?>
<svg width="918px" height="304px" viewBox="0 0 918 304" version="1.1" xmlns="http://www.w3.org/2000/svg" xmlns:xlink="http://www.w3.org/1999/xlink">
    <!-- Generator: Sketch 49.1 (51147) - http://www.bohemiancoding.com/sketch -->
    <title>GrudePB - Full</title>
    <desc>Created with Sketch.</desc>
    <defs></defs>
    <g id="Page-1" stroke="none" stroke-width="1" fill="none" fill-rule="evenodd">
        <g id="GrudePB---Full" fill-rule="nonzero">
            <rect id="BG" fill="#1F1E1E" x="0" y="0" width="917.52002" height="304" rx="46"></rect>
            <path d="M779,205 L881.52,205 L881.52,220.84 L779,220.84 L779,205 Z M185.699,158.624 L229.691,158.624 L229.691,206 L218.693,206 L218.693,194.156 L217.001,194.156 C215.402992,198.292021 212.58302,201.628987 208.541,204.167 C204.49898,206.705013 199.799027,207.974 194.441,207.974 C183.818947,207.974 175.47653,204.543034 169.4135,197.681 C163.35047,190.818966 160.319,180.808066 160.319,167.648 L160.319,145.652 C160.319,132.867936 163.373969,122.951035 169.484,115.901 C175.594031,108.850965 184.100945,105.326 195.005,105.326 C200.645028,105.326 205.626978,106.242491 209.951,108.0755 C214.275022,109.908509 217.893985,112.446484 220.808,115.6895 C223.722015,118.932516 225.930992,122.739478 227.435,127.1105 C228.939008,131.481522 229.691,136.157975 229.691,141.14 L229.691,142.832 L217.847,142.832 L217.847,141.14 C217.847,137.943984 217.400504,134.842015 216.5075,131.834 C215.614496,128.825985 214.251509,126.170512 212.4185,123.8675 C210.585491,121.564488 208.235514,119.731507 205.3685,118.3685 C202.501486,117.005493 199.04702,116.324 195.005,116.324 C187.390962,116.324 181.680519,119.096972 177.8735,124.643 C174.066481,130.189028 172.163,137.473955 172.163,146.498 L172.163,166.802 C172.163,176.484048 174.066481,183.933474 177.8735,189.1505 C181.680519,194.367526 187.484961,196.976 195.287,196.976 C202.337035,196.976 207.85948,194.720023 211.8545,190.208 C215.84952,185.695977 217.847,179.39804 217.847,171.314 L217.847,169.622 L185.699,169.622 L185.699,158.624 Z M312.317,206 L300.473,206 L300.473,173.006 C300.473,170.561988 299.909006,168.682007 298.781,167.366 C297.652994,166.049993 295.679014,165.392 292.859,165.392 L262.121,165.392 L262.121,206 L250.277,206 L250.277,107.3 L285.527,107.3 C290.603025,107.3 295.020981,108.028493 298.781,109.4855 C302.541019,110.942507 305.666488,112.892988 308.1575,115.337 C310.648512,117.781012 312.528494,120.624484 313.7975,123.8675 C315.066506,127.110516 315.701,130.517982 315.701,134.09 L315.701,138.32 C315.701,141.986018 314.69051,145.651982 312.6695,149.318 C310.64849,152.984018 307.523021,155.80399 303.293,157.778 L303.293,159.47 C306.113014,159.940002 308.321992,161.067991 309.92,162.854 C311.518008,164.640009 312.317,167.177984 312.317,170.468 L312.317,206 Z M262.121,154.394 L284.117,154.394 C290.791033,154.394 295.749484,152.960514 298.9925,150.0935 C302.235516,147.226486 303.857,143.020028 303.857,137.474 L303.857,134.936 C303.857,129.953975 302.235516,125.935515 298.9925,122.8805 C295.749484,119.825485 290.791033,118.298 284.117,118.298 L262.121,118.298 L262.121,154.394 Z M345.734,107.3 L345.734,172.724 C345.734,180.71404 347.590481,186.75348 351.3035,190.8425 C355.016519,194.93152 360.491964,196.976 367.73,196.976 C374.968036,196.976 380.443481,194.93152 384.1565,190.8425 C387.869519,186.75348 389.726,180.71404 389.726,172.724 L389.726,107.3 L401.57,107.3 L401.57,172.724 C401.57,184.192057 398.56203,192.93397 392.546,198.95 C386.52997,204.96603 378.258053,207.974 367.73,207.974 C357.201947,207.974 348.93003,204.96603 342.914,198.95 C336.89797,192.93397 333.89,184.192057 333.89,172.724 L333.89,107.3 L345.734,107.3 Z M421.169,107.3 L453.599,107.3 C465.819061,107.3 474.748972,110.213971 480.389,116.042 C486.029028,121.870029 488.849,131.175936 488.849,143.96 L488.849,169.34 C488.849,182.124064 486.029028,191.429971 480.389,197.258 C474.748972,203.086029 465.819061,206 453.599,206 L421.169,206 L421.169,194.861 L429.629,194.861 L429.629,118.298 L421.169,118.298 L421.169,107.3 Z M451.907,195.002 C456.231022,195.002 459.967484,194.579004 463.1165,193.733 C466.265516,192.886996 468.87399,191.45351 470.942,189.4325 C473.01001,187.41149 474.537495,184.709017 475.5245,181.325 C476.511505,177.940983 477.005,173.664026 477.005,168.494 L477.005,144.806 C477.005,139.635974 476.511505,135.359017 475.5245,131.975 C474.537495,128.590983 473.01001,125.88851 470.942,123.8675 C468.87399,121.84649 466.265516,120.413004 463.1165,119.567 C459.967484,118.720996 456.231022,118.298 451.907,118.298 L441.473,118.298 L441.473,195.002 L451.907,195.002 Z M510.422,107.3 L570.206,107.3 L570.206,118.298 L522.266,118.298 L522.266,151.01 L569.36,151.01 L569.36,162.008 L522.266,162.008 L522.266,195.002 L571.052,195.002 L571.052,206 L510.422,206 L510.422,107.3 Z M607.289,165.392 L607.289,206 L595.445,206 L595.445,107.3 L630.695,107.3 C635.771025,107.3 640.188981,108.028493 643.949,109.4855 C647.709019,110.942507 650.834488,112.892988 653.3255,115.337 C655.816512,117.781012 657.696494,120.624484 658.9655,123.8675 C660.234506,127.110516 660.869,130.517982 660.869,134.09 L660.869,138.32 C660.869,141.892018 660.234506,145.322984 658.9655,148.613 C657.696494,151.903016 655.793013,154.793488 653.255,157.2845 C650.716987,159.775512 647.568019,161.749493 643.808,163.2065 C640.047981,164.663507 635.677025,165.392 630.695,165.392 L607.289,165.392 Z M607.289,154.394 L629.285,154.394 C642.445066,154.394 649.025,148.754056 649.025,137.474 L649.025,134.936 C649.025,129.953975 647.403516,125.935515 644.1605,122.8805 C640.917484,119.825485 635.959033,118.298 629.285,118.298 L607.289,118.298 L607.289,154.394 Z M677.789,195.002 L686.249,195.002 L686.249,118.298 L677.789,118.298 L677.789,107.3 L717.692,107.3 C722.392023,107.3 726.551482,107.957993 730.1705,109.274 C733.789518,110.590007 736.844488,112.375989 739.3355,114.632 C741.826512,116.888011 743.706494,119.590484 744.9755,122.7395 C746.244506,125.888516 746.879,129.295982 746.879,132.962 L746.879,134.654 C746.879,137.380014 746.456004,139.870989 745.61,142.127 C744.763996,144.383011 743.589008,146.403991 742.085,148.19 C740.580992,149.976009 738.81851,151.503494 736.7975,152.7725 C734.77649,154.041506 732.591012,155.004997 730.241,155.663 L730.241,157.355 C734.941023,158.671007 738.888984,161.185481 742.085,164.8985 C745.281016,168.611519 746.879,173.146973 746.879,178.505 L746.879,180.197 C746.879,183.863018 746.244506,187.270484 744.9755,190.4195 C743.706494,193.568516 741.826512,196.294488 739.3355,198.5975 C736.844488,200.900512 733.789518,202.709993 730.1705,204.026 C726.551482,205.342007 722.392023,206 717.692,206 L677.789,206 L677.789,195.002 Z M698.093,195.002 L716.846,195.002 C722.392028,195.002 726.903983,193.615514 730.382,190.8425 C733.860017,188.069486 735.599,184.239024 735.599,179.351 L735.599,178.505 C735.599,173.428975 733.954016,169.410515 730.664,166.4495 C727.373984,163.488485 722.909028,162.008 717.269,162.008 L698.093,162.008 L698.093,195.002 Z M698.093,151.01 L717.269,151.01 C722.909028,151.01 727.373984,149.553015 730.664,146.639 C733.954016,143.724985 735.599,139.730025 735.599,134.654 L735.599,133.808 C735.599,129.013976 733.860017,125.230514 730.382,122.4575 C726.903983,119.684486 722.392028,118.298 716.846,118.298 L698.093,118.298 L698.093,151.01 Z M88.8,95.08 C93.933359,95.9600044 98.5899791,97.4633227 102.77,99.59 C106.950021,101.716677 110.506652,104.319985 113.44,107.4 C116.373348,110.480015 118.646659,113.889981 120.26,117.63 C121.873341,121.370019 122.68,125.293313 122.68,129.4 L122.68,133.36 L105.96,133.36 L105.96,130.72 C105.96,125.879976 104.383349,121.77335 101.23,118.4 C98.0766509,115.02665 93.933359,112.680007 88.8,111.36 L88.8,142.82 C100.973394,144.286674 110.249968,147.623307 116.63,152.83 C123.010032,158.036693 126.2,165.186621 126.2,174.28 L126.2,175.6 C126.2,185.426716 122.790034,193.30997 115.97,199.25 C109.149966,205.19003 100.09339,208.526663 88.8,209.26 L88.8,222.68 L72.96,222.68 L72.96,208.82 C66.5066344,207.793328 60.9700231,205.99668 56.35,203.43 C51.7299769,200.863321 47.9166817,197.783351 44.91,194.19 C41.9033183,190.596649 39.666674,186.710021 38.2,182.53 C36.733326,178.349979 36,174.133355 36,169.88 L36,164.6 L52.72,164.6 L52.72,167.24 C52.72,174.280035 54.4799824,179.926645 58,184.18 C61.5200176,188.433355 66.5066344,191.293326 72.96,192.76 L72.96,156.9 C61.959945,155.433326 53.5633623,152.243358 47.77,147.33 C41.9766377,142.416642 39.08,135.560044 39.08,126.76 L39.08,125.44 C39.08,120.746643 39.9966575,116.603351 41.83,113.01 C43.6633425,109.416649 46.1199846,106.33668 49.2,103.77 C52.2800154,101.203321 55.8733128,99.1500077 59.98,97.61 C64.0866872,96.0699923 68.4133106,95.0800022 72.96,94.64 L72.96,81 L88.8,81 L88.8,95.08 Z M109.24,175.94 C109.24,170.806641 107.626683,166.993346 104.4,164.5 C101.173317,162.006654 96.0400352,160.173339 89,159 L89,193.76 C95.3066982,193.026663 100.256649,191.120015 103.85,188.04 C107.443351,184.959985 109.24,180.926692 109.24,175.94 Z M56,125.96 C56,130.066687 57.2099879,133.403321 59.63,135.97 C62.0500121,138.536679 66.4133018,140.406661 72.72,141.58 L72.72,111 C68.0266432,111.733337 64.0666828,113.346654 60.84,115.84 C57.6133172,118.333346 56,121.706645 56,125.96 Z" id="$GRUPEPB_" fill="#5FE548"></path>
        </g>
    </g>
</svg>