<?xml version="1.0" encoding="UTF-8"?>
<svg width="304px" height="304px" viewBox="0 0 304 304" version="1.1" xmlns="http://www.w3.org/2000/svg" xmlns:xlink="http://www.w3.org/1999/xlink">
    <!-- Generator: Sketch 49.1 (51147) - http://www.bohemiancoding.com/sketch -->
    <title>GrudePB - Solo</title>
    <desc>Created with Sketch.</desc>
    <defs></defs>
    <g id="Page-1" stroke="none" stroke-width="1" fill="none" fill-rule="evenodd">
        <rect id="BG" fill="#1F1E1E" x="0" y="0" width="304" height="304" rx="46"></rect>
        <path d="M88.8,95.08 C93.933359,95.9600044 98.5899791,97.4633227 102.77,99.59 C106.950021,101.716677 110.506652,104.319985 113.44,107.4 C116.373348,110.480015 118.646659,113.889981 120.26,117.63 C121.873341,121.370019 122.68,125.293313 122.68,129.4 L122.68,133.36 L105.96,133.36 L105.96,130.72 C105.96,125.879976 104.383349,121.77335 101.23,118.4 C98.0766509,115.02665 93.933359,112.680007 88.8,111.36 L88.8,142.82 C100.973394,144.286674 110.249968,147.623307 116.63,152.83 C123.010032,158.036693 126.2,165.186621 126.2,174.28 L126.2,175.6 C126.2,185.426716 122.790034,193.30997 115.97,199.25 C109.149966,205.19003 100.09339,208.526663 88.8,209.26 L88.8,222.68 L72.96,222.68 L72.96,208.82 C66.5066344,207.793328 60.9700231,205.99668 56.35,203.43 C51.7299769,200.863321 47.9166817,197.783351 44.91,194.19 C41.9033183,190.596649 39.666674,186.710021 38.2,182.53 C36.733326,178.349979 36,174.133355 36,169.88 L36,164.6 L52.72,164.6 L52.72,167.24 C52.72,174.280035 54.4799824,179.926645 58,184.18 C61.5200176,188.433355 66.5066344,191.293326 72.96,192.76 L72.96,156.9 C61.959945,155.433326 53.5633623,152.243358 47.77,147.33 C41.9766377,142.416642 39.08,135.560044 39.08,126.76 L39.08,125.44 C39.08,120.746643 39.9966575,116.603351 41.83,113.01 C43.6633425,109.416649 46.1199846,106.33668 49.2,103.77 C52.2800154,101.203321 55.8733128,99.1500077 59.98,97.61 C64.0866872,96.0699923 68.4133106,95.0800022 72.96,94.64 L72.96,81 L88.8,81 L88.8,95.08 Z M109.24,175.94 C109.24,170.806641 107.626683,166.993346 104.4,164.5 C101.173317,162.006654 96.0400352,160.173339 89,159 L89,193.76 C95.3066982,193.026663 100.256649,191.120015 103.85,188.04 C107.443351,184.959985 109.24,180.926692 109.24,175.94 Z M56,125.96 C56,130.066687 57.2099879,133.403321 59.63,135.97 C62.0500121,138.536679 66.4133018,140.406661 72.72,141.58 L72.72,111 C68.0266432,111.733337 64.0666828,113.346654 60.84,115.84 C57.6133172,118.333346 56,121.706645 56,125.96 Z M165,207 L267.52,207 L267.52,222.84 L165,222.84 L165,207 Z" id="$_" fill="#5FE548"></path>
    </g>
</svg>