<svg xmlns="http://www.w3.org/2000/svg" xmlns:xlink="http://www.w3.org/1999/xlink" width="527" height="184" viewBox="0 0 527 184">
    <defs>
        <path id="a" d="M.052.008h47.87v6.856H.051z"/>
        <path id="c" d="M.052.002h47.87V7H.051z"/>
    </defs>
    <g fill="none" fill-rule="evenodd">
        <path fill="#F38472" d="M69.11 21.076C74.517 18.359 80.73 17 87.744 17c7.016 0 13.138 1.21 18.365 3.628 5.227 2.402 7.857 5.48 7.891 9.23 0 3.752-2.656 7.042-7.967 9.872-5.312 2.83-11.58 4.254-18.805 4.27-7.193 0-13.362-1.264-18.508-3.791-5.147-2.528-7.72-5.67-7.72-9.424 0-3.756 2.703-6.992 8.11-9.71"/>
        <g transform="translate(65)">
            <mask id="b" fill="#fff">
                <use xlink:href="#a"/>
            </mask>
            <path fill="#F38472" d="M7.377 1.043C12.26.353 17.871.008 24.207.008c6.337 0 11.866.307 16.587.921 4.721.61 7.097 1.391 7.127 2.344 0 .952-2.399 1.788-7.196 2.507-4.797.718-10.458 1.08-16.984 1.084-6.496 0-12.068-.321-16.717-.963C2.376 5.259.052 4.461.052 3.508c0-.953 2.441-1.775 7.325-2.465" mask="url(#b)"/>
        </g>
        <path fill="#F38472" d="M61 153.216c0-3.755 2.573-6.897 7.72-9.425C73.866 141.264 80.035 140 87.228 140c7.225.016 13.493 1.44 18.805 4.27 5.311 2.83 7.967 6.12 7.967 9.872-.034 3.75-2.664 6.828-7.89 9.23C100.881 165.79 94.76 167 87.743 167c-7.015 0-13.227-1.359-18.634-4.076-5.407-2.717-8.11-5.953-8.11-9.708"/>
        <g transform="translate(65 177)">
            <mask id="d" fill="#fff">
                <use xlink:href="#c"/>
            </mask>
            <path fill="#F38472" d="M.052 3.427c0-.973 2.324-1.788 6.972-2.443C11.673.33 17.244.002 23.741.002c6.526.004 12.187.373 16.984 1.106 4.798.734 7.196 1.587 7.196 2.559-.03.972-2.406 1.77-7.127 2.393-4.721.627-10.25.94-16.587.94-6.336 0-11.947-.352-16.83-1.056C2.493 5.239.052 4.4.052 3.427" mask="url(#d)"/>
        </g>
        <path fill="#F38472" d="M119 93.5c0 16.787-13.713 30.5-30.5 30.5S58 110.287 58 93.5 71.713 63 88.5 63 119 76.713 119 93.5"/>
        <path fill="#23403F" d="M30.697 124C13.789 124 0 110.405 0 93.5S13.79 63 30.817 63C39.45 63 47.004 66.547 53 72.34l-7.315 8.865c-4.676-4.492-9.952-6.384-14.868-6.384-10.313 0-18.826 8.394-18.826 18.56 0 10.168 8.513 18.679 18.826 18.679 4.916 0 10.312-1.892 14.868-6.62L53 114.425C47.004 120.099 39.69 124 30.697 124M181 88.04V123h-12V88.04c0-7.323-6.12-13.23-13.44-13.23-7.56 0-13.56 5.907-13.56 13.23V123h-12V63.945h8.724l1.236 5.08c4.32-3.78 10.08-6.025 16.08-6.025C169.96 63 181 74.22 181 88.04M239.274 93.025c0-10.445-8.529-18.848-18.596-18.848-10.305 0-18.596 8.403-18.596 18.848 0 10.325 8.29 18.73 18.596 18.73 10.067 0 18.596-8.405 18.596-18.73m-.119-23.77V39H251v84.04h-8.848l-1.22-7.564c-5.212 5.162-12.556 8.524-20.373 8.524C203.621 124 190 110.073 190 93.025c0-17.167 13.621-30.974 30.56-30.974 7.106 0 13.739 2.761 18.595 7.203M286.5 125c-14.073 0-25.5-11.22-25.5-25.04V65h11.908v34.96c0 7.205 6.134 13.23 13.592 13.23s13.472-6.025 13.472-13.23V65H312v34.96c0 13.82-11.427 25.04-25.5 25.04M352.697 124C335.789 124 322 110.405 322 93.5S335.79 63 352.817 63c8.633 0 16.188 3.547 22.183 9.34l-7.314 8.865c-4.677-4.492-9.953-6.384-14.87-6.384-10.311 0-18.825 8.394-18.825 18.56 0 10.168 8.514 18.679 18.826 18.679 4.916 0 10.312-1.892 14.869-6.62l7.314 8.985c-5.995 5.674-13.31 9.575-22.303 9.575M386 112.635V45h12.121v18.82H418v10.416h-19.879v36.81h19.636V123h-21.143c-5.862 0-10.614-4.64-10.614-10.365M434.822 93.5c0 10.285 8.393 18.56 18.678 18.56s18.442-8.275 18.442-18.56c0-10.285-8.157-18.56-18.442-18.56s-18.678 8.275-18.678 18.56m49.178 0c0 16.787-13.713 30.5-30.5 30.5S423 110.287 423 93.5 436.713 63 453.5 63 484 76.713 484 93.5M527 76.52h-6.687c-7.522 0-13.373 4.8-13.373 12.36V125H495V65h8.56l1.23 5.04c3.225-3.24 8.36-5.04 14.09-5.04H527v11.52z"/>
    </g>
</svg>
