<?xml version="1.0" encoding="utf-8"?>
<!-- Generator: Adobe Illustrator 22.0.1, SVG Export Plug-In . SVG Version: 6.00 Build 0)  -->
<svg version="1.1" id="Camada_1" xmlns="http://www.w3.org/2000/svg" xmlns:xlink="http://www.w3.org/1999/xlink" x="0px" y="0px"
	 viewBox="0 0 159.7 60" style="enable-background:new 0 0 159.7 60;" xml:space="preserve">
<style type="text/css">
	.st0{fill:#FFD500;}
	.st1{fill:url(#SVGID_1_);}
	.st2{fill:url(#SVGID_2_);}
	.st3{fill:url(#SVGID_3_);}
	.st4{fill:#BDBCBC;}
	.st5{fill:url(#SVGID_4_);}
	.st6{fill:url(#SVGID_5_);}
	.st7{fill:url(#SVGID_6_);}
	.st8{fill:url(#SVGID_7_);}
	.st9{fill:url(#SVGID_8_);}
	.st10{fill:url(#SVGID_9_);}
	.st11{fill:url(#SVGID_10_);}
	.st12{fill:url(#SVGID_11_);}
	.st13{fill:url(#SVGID_12_);}
	.st14{fill:url(#SVGID_13_);}
	.st15{fill:url(#SVGID_14_);}
	.st16{fill:url(#SVGID_15_);}
	.st17{fill:url(#SVGID_16_);}
	.st18{fill:url(#SVGID_17_);}
	.st19{fill:url(#SVGID_18_);}
	.st20{fill:url(#SVGID_19_);}
	.st21{fill:url(#SVGID_20_);}
	.st22{fill:url(#SVGID_21_);}
	.st23{fill:url(#SVGID_22_);}
	.st24{fill:url(#SVGID_23_);}
	.st25{fill:url(#SVGID_24_);}
	.st26{fill:url(#SVGID_25_);}
	.st27{fill:url(#SVGID_26_);}
	.st28{fill:url(#SVGID_27_);}
	.st29{fill:url(#SVGID_28_);}
	.st30{fill:url(#SVGID_29_);}
	.st31{fill:url(#SVGID_30_);}
	.st32{fill:url(#SVGID_31_);}
	.st33{fill:#FFFFFF;}
	.st34{fill:url(#SVGID_32_);}
	.st35{fill:url(#SVGID_33_);}
	.st36{fill:url(#SVGID_34_);}
	.st37{fill:url(#SVGID_35_);}
	.st38{fill:url(#SVGID_36_);}
	.st39{fill:url(#SVGID_37_);}
	.st40{fill:url(#SVGID_38_);}
	.st41{fill:url(#SVGID_39_);}
	.st42{fill:url(#SVGID_40_);}
	.st43{fill:url(#SVGID_41_);}
	.st44{fill:url(#SVGID_42_);}
	.st45{fill:url(#SVGID_43_);}
	.st46{fill:url(#SVGID_44_);}
	.st47{fill:url(#SVGID_45_);}
	.st48{fill:url(#SVGID_46_);}
	.st49{fill:url(#SVGID_47_);}
	.st50{fill:url(#SVGID_48_);}
	.st51{fill:url(#SVGID_49_);}
	.st52{fill:url(#SVGID_50_);}
	.st53{fill:url(#SVGID_51_);}
	.st54{fill:url(#SVGID_52_);}
	.st55{fill:url(#SVGID_53_);}
	.st56{fill:url(#SVGID_54_);}
	.st57{fill:url(#SVGID_55_);}
	.st58{fill:url(#SVGID_56_);}
	.st59{fill:url(#SVGID_57_);}
	.st60{fill:url(#SVGID_58_);}
	.st61{fill:url(#SVGID_59_);}
	.st62{fill:url(#SVGID_60_);}
	.st63{fill:url(#SVGID_61_);}
	.st64{fill:url(#SVGID_62_);}
	.st65{fill:#003869;}
	.st66{fill:#010202;}
</style>
<g>
	<g>
		<path class="st0" d="M38.9,44.7c-0.8-2.1-1.8-4.7-2.6-7.4c-1.5-5.1-2.8-10-2.8-10c1-0.7,9.8-6.7,16.2-10.3c0.1-0.1,2-1.1,2.2-2.4
			c0-0.4,0-0.7-0.1-1.1c-0.3-1-1.1-1.8-3.4-2c-1.8-0.1-4.9-0.3-8.3-0.1c-3.4,0.1-6.9,0.5-9.6,0.9c0,0-1.1-6.6-1.5-9.3
			c0-0.2-0.2-1.2-0.5-1.6c-0.3-0.4-0.7-0.9-1.5-1c-0.8-0.1-1.4,0.1-1.8,0.4c-0.4,0.3-1,1.1-1.1,1.3c-1.7,2.4-6.5,9.5-8.9,13.6
			c0,0-7.5,2.3-12,4.2c-1.3,0.6-1.5,1.2-1.5,1.6c0,0.3,0,1,1,1.8c1.3,1.1,5.5,4.6,5.5,4.6C6.7,30.3,1,41.8,0.5,45.1
			C0.3,46,0.3,46.9,1,47.8c0.4,0.6,1.2,0.9,2,1c1,0,2.3-1,2.8-1.4c4.5-3.2,13.3-10,13.3-10c3.3,3,10.3,9.4,14,12.8
			c0.4,0.4,1.8,1.7,3.1,1.7c2.5,0.1,3.4-2.1,3.5-2.9C40,47.3,39.2,45.4,38.9,44.7z M4.4,22.1C4.3,22,4,21.7,4,21.4
			c0-0.2,0.1-0.3,0.3-0.5c0.1-0.1,0.4-0.2,0.4-0.2c0.8-0.3,4.3-1.5,9-2.7c-1.2,2.2-2.1,3.5-2.6,4.5c-1.3,2.3-1.3,2.4-1.9,3.4
			C9.3,25.9,5.4,22.8,4.4,22.1z M6.6,40.7c-0.1,0.1-0.6,0.4-0.7,0.5c-1,0.5-1.2-0.1-1.3-0.4c-0.1-0.5,0.3-1.4,0.3-1.5
			c0.9-2.1,4.8-10.1,4.8-10.1s4.7,4,5.9,5.1C15.6,34.2,8.8,39.2,6.6,40.7z M31,37.7c0.8,2.7,1.7,5.5,2.1,6.9c0.1,0.4,0.1,0.7,0,0.9
			c-0.1,0.2-0.4,0.3-0.7,0.1c-0.1-0.1-0.5-0.4-0.5-0.4c-1.7-1.5-10.6-9.3-10.6-9.3l7.7-5.4C28.9,30.4,30,34.3,31,37.7z M17.6,32.7
			c0,0-6.4-5.4-6.8-5.7c0,0,4.1-7.7,5.4-9.6c0.8-0.2,6.8-1.3,9.6-1.7c0,0,0.8,4.7,2.1,10C27.8,25.8,19.5,31.3,17.6,32.7z M35.5,14.9
			c2.8-0.1,5.7-0.2,5.9-0.2c0.7,0,1.3,0.1,1.4,0.4c0.1,0.4-0.2,0.9-0.7,1.2c-0.1,0.1-1.8,1.2-3.6,2.4c-2.7,1.8-6.1,4.1-6.1,4.1
			c0,0.1-1.3-6-1.6-7.6C30.9,15.3,33.2,15,35.5,14.9z M23,7.1C23,7,23.5,6.4,23.8,6.4c0.3,0,0.5,0.4,0.5,0.6
			c0.1,0.5,0.2,1.2,0.4,2.4c0.3,1.7,0.6,3.8,0.6,3.8c-1.8,0.4-6.3,1.4-7.7,1.8C19.1,12.5,22,8.3,23,7.1z"/>
		<linearGradient id="SVGID_1_" gradientUnits="userSpaceOnUse" x1="27.2317" y1="1.0017" x2="26.649" y2="2.6664">
			<stop  offset="0" style="stop-color:#FFED00"/>
			<stop  offset="0.8571" style="stop-color:#FFD500"/>
		</linearGradient>
		<path class="st1" d="M24.1,2.5c0,0,0.4-0.6,0.7-1c0.2-0.2,0.7-0.9,1.7-0.9c1.3,0.1,2,0.8,2.2,1.9c0,0.2,0.1,0.9,0.2,1.1L24.1,2.5z
			"/>
		<linearGradient id="SVGID_2_" gradientUnits="userSpaceOnUse" x1="28.4617" y1="4.0412" x2="27.1019" y2="5.655380e-02">
			<stop  offset="0" style="stop-color:#F9B000"/>
			<stop  offset="1" style="stop-color:#FFED00"/>
		</linearGradient>
		<path class="st2" d="M28.9,3.7L28.9,3.7c0-0.2-0.1-0.9-0.2-1.1c-0.2-1.1-0.8-1.9-2.1-1.9c0,0,0,0,0,0c0.6,0.2,1.1,1.4,1.2,2
			c0,0.3,0.1,0.6,0.1,0.9c0.3,2,0.9,3.8,0.9,3.8S29,5.3,28.9,3.7z"/>
		
			<linearGradient id="SVGID_3_" gradientUnits="userSpaceOnUse" x1="29.5982" y1="-16.581" x2="40.3198" y2="20.8777" gradientTransform="matrix(0.9994 3.480000e-02 -3.480000e-02 0.9994 -1.1706 24.3334)">
			<stop  offset="0" style="stop-color:#F9B000"/>
			<stop  offset="1" style="stop-color:#E30613"/>
		</linearGradient>
		<path class="st3" d="M28.5,4.9l0.4-0.1C29.8,12,32.1,23,32.1,23l-0.5,0.3C31.7,23.3,29.4,12.2,28.5,4.9z"/>
		<path class="st4" d="M32.5,22.8L32.5,22.8C32.5,22.8,32.5,22.8,32.5,22.8z"/>
		<linearGradient id="SVGID_4_" gradientUnits="userSpaceOnUse" x1="3.4479" y1="20.8957" x2="9.6465" y2="18.9066">
			<stop  offset="0" style="stop-color:#FFD500"/>
			<stop  offset="1" style="stop-color:#E63312"/>
		</linearGradient>
		<path class="st5" d="M4.5,20.3c-0.3,0.1-0.4,0.6-0.4,0.6s0.1-0.2,0.6-0.3c0,0,3.4-1.3,9.1-2.7l0.3-0.5C8.1,18.9,4.5,20.3,4.5,20.3
			z"/>
		<linearGradient id="SVGID_5_" gradientUnits="userSpaceOnUse" x1="36.8708" y1="12.5685" x2="28.5561" y2="15.6652">
			<stop  offset="0" style="stop-color:#FFD500"/>
			<stop  offset="1" style="stop-color:#E63312"/>
		</linearGradient>
		<path class="st6" d="M35.5,14.9c0.7,0,1.5-0.1,2.2-0.1l0.3-3.3c-2.7,0.2-5.5,0.5-7.6,0.8l0.5,2.9C30.9,15.3,33.2,15,35.5,14.9z"/>
		<linearGradient id="SVGID_6_" gradientUnits="userSpaceOnUse" x1="43.4294" y1="14.8488" x2="36.26" y2="14.6299">
			<stop  offset="0" style="stop-color:#FFD500"/>
			<stop  offset="1" style="stop-color:#E63312"/>
		</linearGradient>
		<path class="st7" d="M42.7,14.7c0,0-0.4-0.5-1.6-0.6c-3.6,0-7.1,0.2-10.3,0.5l0.1,0.5c3.2-0.3,6.6-0.5,10.2-0.5
			C42.1,14.6,42.5,14.7,42.7,14.7z"/>
		<path class="st4" d="M32.5,22.8L32.5,22.8C32.5,22.8,32.5,22.8,32.5,22.8z"/>
		<linearGradient id="SVGID_7_" gradientUnits="userSpaceOnUse" x1="21.317" y1="15.3292" x2="15.6904" y2="16.5187">
			<stop  offset="0" style="stop-color:#FFD500"/>
			<stop  offset="1" style="stop-color:#E63312"/>
		</linearGradient>
		<path class="st8" d="M21.9,14c-1.7,0.4-3.5,0.8-4.3,1.1l-1.4,2.4c0.5-0.1,3.1-0.6,5.7-1.1L21.9,14z"/>
		<linearGradient id="SVGID_8_" gradientUnits="userSpaceOnUse" x1="32.3322" y1="14.8106" x2="17.5222" y2="16.7022">
			<stop  offset="0" style="stop-color:#FFD500"/>
			<stop  offset="1" style="stop-color:#E63312"/>
		</linearGradient>
		<path class="st9" d="M16.6,16.8l-0.3,0.5c2.8-0.6,6-1.2,9.5-1.7l-0.1-0.5C22.3,15.6,19.2,16.2,16.6,16.8z"/>
		<linearGradient id="SVGID_9_" gradientUnits="userSpaceOnUse" x1="3.2759" y1="22.9793" x2="17.3534" y2="33.7634">
			<stop  offset="0" style="stop-color:#FFD500"/>
			<stop  offset="1" style="stop-color:#E63312"/>
		</linearGradient>
		<path class="st10" d="M2.8,22.1c-0.5-0.4-0.7-0.6-0.8-0.8C2,21.1,2,21,2,21c-0.1,0.2-0.1,0.4-0.1,0.5c0,0.2,0,0.4,0,0.4v0
			c0,0.1,0.1,0.2,0.1,0.4c0.1,0.2,0.3,0.4,0.4,0.5c0.4,0.3,5.9,4.9,5.9,4.9L8.7,27L2.8,22.1z"/>
		<linearGradient id="SVGID_10_" gradientUnits="userSpaceOnUse" x1="14.2663" y1="31.4944" x2="8.3605" y2="26.7244">
			<stop  offset="0" style="stop-color:#FFD500"/>
			<stop  offset="1" style="stop-color:#E63312"/>
		</linearGradient>
		<polygon class="st11" points="9.7,29.2 10.8,27.1 15.3,30.9 14,32.9 		"/>
		<linearGradient id="SVGID_11_" gradientUnits="userSpaceOnUse" x1="17.2429" y1="35.1636" x2="7.8426" y2="26.369">
			<stop  offset="0" style="stop-color:#F9B000"/>
			<stop  offset="1" style="stop-color:#E30613"/>
		</linearGradient>
		<path class="st12" d="M10.2,28.2L9.8,29c0,0,2.6,2.1,6,5.1l0.6-0.5C13.1,30.7,10.2,28.2,10.2,28.2z"/>
		
			<linearGradient id="SVGID_12_" gradientUnits="userSpaceOnUse" x1="21.8316" y1="-45.093" x2="15.6786" y2="-49.7288" gradientTransform="matrix(0.9932 0.1162 -0.1162 0.9932 -2.203 82.938)">
			<stop  offset="0" style="stop-color:#FFD500"/>
			<stop  offset="1" style="stop-color:#E63312"/>
		</linearGradient>
		<polygon class="st13" points="19.2,37.4 21.3,35.9 27.8,41.6 25.6,43.3 		"/>
		<linearGradient id="SVGID_13_" gradientUnits="userSpaceOnUse" x1="30.5295" y1="46.9784" x2="16.5466" y2="34.0442">
			<stop  offset="0" style="stop-color:#FFD500"/>
			<stop  offset="1" style="stop-color:#E63312"/>
		</linearGradient>
		<path class="st14" d="M31.3,48.2c-0.6-0.7-3.3-3.8-5.9-6.2c-1.4-1.3-3.1-3.2-5.4-5.2l-0.7,0.5C23.6,41,28.2,45.2,31.3,48.2
			L31.3,48.2z"/>
		<linearGradient id="SVGID_14_" gradientUnits="userSpaceOnUse" x1="33.106" y1="35.0817" x2="29.1883" y2="23.5067">
			<stop  offset="0" style="stop-color:#FFD500"/>
			<stop  offset="1" style="stop-color:#E63312"/>
		</linearGradient>
		<path class="st15" d="M33.5,27.3l-4.6,3.2l0,0c0,0,0,0,0,0c0.1,0.4,1.1,4,2,7.2c0.1,0.3,0.2,0.6,0.3,0.9l0,0l5-1.7
			C34.8,32.2,33.6,27.7,33.5,27.3z"/>
		<linearGradient id="SVGID_15_" gradientUnits="userSpaceOnUse" x1="34.2626" y1="46.3009" x2="29.9941" y2="39.9417">
			<stop  offset="0" style="stop-color:#FFF482"/>
			<stop  offset="1" style="stop-color:#FFD500"/>
		</linearGradient>
		<path class="st16" d="M27.7,41.9L27.7,41.9c0.5,0.6,3.4,4,4.5,4.9c1.6,1.2,2.3,0.6,2.4-0.2c0.4-2.9-4.2-11.2-4.2-11.2
			c0.1,0.3,2.3,7.9,2.8,9.2l0,0l0,0c0.1,0.2,0.1,0.4,0.1,0.6l0,0c0,0.2,0,0.3-0.1,0.4l0,0c-0.1,0.1-0.1,0.2-0.3,0.3l0,0
			c-0.1,0-0.2,0.1-0.3,0.1l0,0l0,0l0,0c-0.1,0-0.3,0-0.4-0.1l0,0c-0.1-0.1-0.3-0.2-0.5-0.3l0,0C31.3,45,29.6,43.6,27.7,41.9z"/>
		<linearGradient id="SVGID_16_" gradientUnits="userSpaceOnUse" x1="41.7894" y1="58.7944" x2="24.581" y2="14.9004">
			<stop  offset="0" style="stop-color:#FFD500"/>
			<stop  offset="1" style="stop-color:#E63312"/>
		</linearGradient>
		<path class="st17" d="M39.2,46.5c-2.3-5.5-4.8-14.6-6-19l-0.4,0.3c0.9,4.5,3.4,13.7,5.1,18.8c0.1,0.4,0.2,0.8,0.2,1.5
			c0,0.3-0.1,0.6-0.1,0.9c0,0.2-0.1,0.4-0.3,0.7c-0.2,0.4-0.5,0.9-1,1.2c-0.4,0.3-0.9,0.5-1.5,0.5c0.3,0.1,0.6,0.1,0.9,0.2
			c0,0,0.1,0,0.1,0c0.9,0,1.5-0.3,2-0.7c0.5-0.4,0.8-0.9,1-1.3c0.1-0.3,0.2-0.5,0.2-0.7c0.1-0.4,0.1-0.7,0.1-0.9
			C39.5,47.3,39.3,46.9,39.2,46.5z"/>
		<linearGradient id="SVGID_17_" gradientUnits="userSpaceOnUse" x1="37.6434" y1="19.6896" x2="-31.0557" y2="63.871">
			<stop  offset="0" style="stop-color:#FFD500"/>
			<stop  offset="1" style="stop-color:#F9B000"/>
		</linearGradient>
		<path class="st18" d="M6.5,42.9c1.4-0.8,34.2-24.2,36.1-25.6c1.6-1.1,1.8-2,1.5-2.4c-0.3-0.3-0.8-0.7-2.8-0.8v0
			c0.9,0.2,1.4,0.5,1.4,0.5c1.2,0.7-0.6,2-0.6,2s-3,2-7.4,4.9c-3.5,2.3-7.9,5.1-12.1,8C15,34.9,7.3,40.7,5.9,41.4
			c-1.2,0.6-1.7-0.3-1.5-0.9C3.8,41.7,2.6,45.2,6.5,42.9z"/>
		<linearGradient id="SVGID_18_" gradientUnits="userSpaceOnUse" x1="44.0249" y1="14.8319" x2="35.5208" y2="20.5208">
			<stop  offset="0" style="stop-color:#FFED00"/>
			<stop  offset="1" style="stop-color:#F9B000"/>
		</linearGradient>
		<path class="st19" d="M43.6,15.7c0.2-0.9-1-1-1-1c1.2,0.7-0.6,2-0.6,2s-3.1,2.1-4.6,3.1C37.5,19.8,43.3,16.8,43.6,15.7z"/>
		<linearGradient id="SVGID_19_" gradientUnits="userSpaceOnUse" x1="16.9746" y1="36.3117" x2="-5.4092" y2="53.1805">
			<stop  offset="0" style="stop-color:#FFD500"/>
			<stop  offset="1" style="stop-color:#E63312"/>
		</linearGradient>
		<path class="st20" d="M24.9,31.8c-1.8,1.2-3.4,2.3-4.7,3.3c-6.8,5-12.6,9.4-15.6,11.7c-0.6,0.5-1.3,1.2-3,0.5
			c-0.5-0.2-0.8-0.6-0.9-0.9c0.1,0.4,0.3,1.4,1.2,1.9c1.6,0.6,2.4-0.1,3-0.5c2.9-2.1,5.5-4.2,9.9-7.5L24.9,31.8L24.9,31.8z"/>
		<linearGradient id="SVGID_20_" gradientUnits="userSpaceOnUse" x1="59.8244" y1="8.2157" x2="-11.7973" y2="58.3509">
			<stop  offset="0" style="stop-color:#FFD500"/>
			<stop  offset="1" style="stop-color:#E63312"/>
		</linearGradient>
		<path class="st21" d="M43.2,20.4C43.2,20.4,43.2,20.3,43.2,20.4c-3.1,1.8-10.9,6.6-15.5,9.9c-3.7,2.7-8.7,6.6-11.3,8.6V39
			c1.2-0.9,2.5-1.9,4-3C29.3,29.6,39.2,22.9,43.2,20.4z"/>
		<linearGradient id="SVGID_21_" gradientUnits="userSpaceOnUse" x1="24.5639" y1="29.5269" x2="10.334" y2="38.1289">
			<stop  offset="0" style="stop-color:#F7A600"/>
			<stop  offset="1" style="stop-color:#FFED00"/>
		</linearGradient>
		<path class="st22" d="M7.7,40.7c1.6-0.9,4.2-2.9,7.6-5.3c0.9-0.6,5.8-4.4,6.7-5.4C14.6,35.2,7.2,40.7,5.9,41.4c0,0-0.1,0-0.1,0
			C5.9,41.5,6.3,41.5,7.7,40.7z"/>
		<linearGradient id="SVGID_22_" gradientUnits="userSpaceOnUse" x1="22.3922" y1="1.6902" x2="31.7633" y2="32.5894">
			<stop  offset="0" style="stop-color:#FFD500"/>
			<stop  offset="1" style="stop-color:#FBBA00"/>
		</linearGradient>
		<path class="st23" d="M28.2,25.6C25.7,14.8,24.9,9,24.6,7c-0.1-0.6-0.3-0.7-0.5-0.8c0,0,0.7-0.4,1.3,0.4c0.1,0.2,0.9,4.7,1.8,9.2
			c0.9,4.6,2.3,9,2.3,9L28.2,25.6z"/>
		<linearGradient id="SVGID_23_" gradientUnits="userSpaceOnUse" x1="15.3064" y1="16.8475" x2="29.3799" y2="-1.6126">
			<stop  offset="0" style="stop-color:#F9B000"/>
			<stop  offset="1" style="stop-color:#E30613"/>
		</linearGradient>
		<path class="st24" d="M23.6,6.2c0,0-0.4-0.2-0.7,0.2c-0.2,0.3-1.9,2-5.9,8.8l0,0c1.1-1.6,4.7-7.1,5.9-8.5
			C23,6.7,23.3,6.2,23.6,6.2z"/>
		<linearGradient id="SVGID_24_" gradientUnits="userSpaceOnUse" x1="0.8246" y1="40.7338" x2="27.7441" y2="5.4238">
			<stop  offset="0" style="stop-color:#F7A600"/>
			<stop  offset="1" style="stop-color:#E30613"/>
		</linearGradient>
		<path class="st25" d="M5.1,38.3c0.5-1.3,2.8-6.6,5-10.7c2.1-3.9,4.1-7.3,4.9-8.6l0,0C13.6,21.6,7.6,32.9,5.1,38.3L5.1,38.3z"/>
		<linearGradient id="SVGID_25_" gradientUnits="userSpaceOnUse" x1="5.1212" y1="19.7982" x2="1.7965" y2="21.4098">
			<stop  offset="0" style="stop-color:#FFED00"/>
			<stop  offset="1" style="stop-color:#FFF482"/>
		</linearGradient>
		<path class="st26" d="M1.9,21.9L1.9,21.9c0,0,0-0.1,0-0.1l0,0c0.1-0.5,0.4-1,0.9-1.2l0,0c1.5-0.6,3.3-1.4,4.1-1.8l0-0.1
			c-1.5,0.5-2.9,1.1-4.1,1.6l0,0c-0.6,0.2-0.9,0.7-0.9,1.2l0,0c0,0,0,0.1,0,0.1l0,0c0,0.1,0,0.2,0,0.3C1.9,22,1.9,21.9,1.9,21.9z"/>
		<linearGradient id="SVGID_26_" gradientUnits="userSpaceOnUse" x1="2.313" y1="22.4171" x2="23.2771" y2="22.4171">
			<stop  offset="0" style="stop-color:#FFE163"/>
			<stop  offset="1" style="stop-color:#F9B000"/>
		</linearGradient>
		<path class="st27" d="M2.3,40.9c0.5-0.9,7.6-14,10.1-18.4C14.8,18.2,21.9,6.3,23.3,4l0,0c-3.8,5.5-7.6,11.3-10.8,16.9
			c-1.7,3-3.3,5.9-4.7,8.6c-1.6,3.1-3,5.9-4.1,8.3C3.1,38.9,2.7,40,2.3,40.9L2.3,40.9z"/>
		<linearGradient id="SVGID_27_" gradientUnits="userSpaceOnUse" x1="18.8129" y1="10.097" x2="4.7093" y2="34.6379">
			<stop  offset="0" style="stop-color:#FFCE44"/>
			<stop  offset="1" style="stop-color:#FFED00"/>
		</linearGradient>
		<path class="st28" d="M7.7,29.5L7.7,29.5c0.5-0.8,4.2-7.8,5.5-10c1.4-2.5,3.9-6.4,4.3-7.1l0,0c-0.5,0.9-3.7,6.6-4.9,8.8
			C11.5,23.1,8.1,28.8,7.7,29.5z"/>
		<linearGradient id="SVGID_28_" gradientUnits="userSpaceOnUse" x1="27.7164" y1="21.3807" x2="21.7528" y2="-4.7101">
			<stop  offset="0" style="stop-color:#FFE163"/>
			<stop  offset="1" style="stop-color:#FFED00"/>
		</linearGradient>
		<path class="st29" d="M24.1,6.2c0.3,0,0.5,0.2,0.5,0.8c0.3,1.8,1,7.2,3.2,16.9c0,0,0,0,0,0c-0.3-1.7-2.6-15.3-2.9-17
			C24.8,6,24.1,6.2,24.1,6.2z"/>
		<linearGradient id="SVGID_29_" gradientUnits="userSpaceOnUse" x1="49.3065" y1="11.8228" x2="47.7323" y2="13.719">
			<stop  offset="0" style="stop-color:#FFF482"/>
			<stop  offset="0.1379" style="stop-color:#FFED68"/>
			<stop  offset="0.3827" style="stop-color:#FFE23A"/>
			<stop  offset="0.6148" style="stop-color:#FFDA00"/>
			<stop  offset="0.8267" style="stop-color:#FFD600"/>
			<stop  offset="1" style="stop-color:#FFD500"/>
		</linearGradient>
		<path class="st30" d="M44.4,11.6l1.8,0.1l2.5,0.2c0,0,2.3,0.1,2.9,1.7c0.7,2-1.4,3-1.4,3S50.5,13.1,44.4,11.6z"/>
		<linearGradient id="SVGID_30_" gradientUnits="userSpaceOnUse" x1="48.3741" y1="11.8255" x2="53.0385" y2="15.8695">
			<stop  offset="0" style="stop-color:#FFD500"/>
			<stop  offset="1" style="stop-color:#FFED00"/>
		</linearGradient>
		<path class="st31" d="M51.4,13.6c-0.1-0.4-0.3-0.6-0.6-0.8c-0.3-0.2-0.6-0.4-0.9-0.5c-0.6-0.2-1.2-0.2-1.2-0.2c0,0,0,0,0,0h0
			l-0.3,0c0.2,0,0.5,0.1,0.7,0.2c0.4,0.1,0.7,0.3,1,0.6c0.3,0.3,0.6,0.6,0.7,1c0.1,0.3,0.1,0.6,0.1,0.8c0,0.4,0.1,0.9,0.3,0.6
			c0.1-0.3,0.2-0.5,0.2-0.9C51.5,14.1,51.4,13.9,51.4,13.6z"/>
		<linearGradient id="SVGID_31_" gradientUnits="userSpaceOnUse" x1="28.6665" y1="41.7236" x2="34.793" y2="47.6861">
			<stop  offset="0" style="stop-color:#FFE163"/>
			<stop  offset="1" style="stop-color:#FFED00"/>
		</linearGradient>
		<path class="st32" d="M27.7,41.9L27.7,41.9c0.5,0.6,3.1,3.4,4.3,4.2c1,0.8,1.5,0.5,1.6,0c0.1-0.5-0.2-1.1-0.2-1.1s0.1,0.6-0.3,0.8
			l0,0c-0.1,0-0.2,0.1-0.3,0.1l0,0h0l0,0c-0.1,0-0.3,0-0.4-0.1l0,0c-0.1-0.1-0.3-0.2-0.5-0.3l0,0C31.3,45,29.6,43.6,27.7,41.9z"/>
	</g>
	<g>
		<g>
			<path class="st33" d="M57,27.7c-0.5-0.9-0.8-2.2-0.8-3.6V13.4h3.6V24c0,0.9,0.2,1.7,0.5,2.3c0.6,1.1,1.8,1.7,3.4,1.7
				c1.6,0,2.7-0.6,3.3-1.7c0.3-0.6,0.5-1.4,0.5-2.3V13.4h3.6v10.8c0,1.4-0.3,2.6-0.8,3.6c-1.1,2.2-3.5,3.2-6.7,3.2
				C60.5,31,58.2,29.9,57,27.7z"/>
			<path class="st33" d="M86.6,30.7l-7.3-9.5c-0.6-0.8-1.2-1.6-1.8-2.4h-0.1c0.1,0.6,0.1,1.7,0.1,2.5v9.3H74V13.4h3.6l7,9.1
				c0.7,0.9,1.2,1.6,1.8,2.4h0.1c-0.1-0.9-0.1-2.1-0.1-2.9v-8.6h3.6v17.3H86.6z"/>
			<path class="st33" d="M92.8,13.4h3.6v17.3h-3.6V13.4z"/>
			<path class="st33" d="M99.3,13.4h4.5c1.6,0,2.9,0.2,3.9,0.7c1.9,0.9,2.9,2.6,2.9,5c0,2-0.9,4.2-3.4,5.2c-1,0.4-2.2,0.6-3.7,0.6
				h-0.6v5.8h-3.6V13.4z M103.7,22c0.8,0,1.4-0.1,1.9-0.3c0.9-0.4,1.3-1.3,1.3-2.5c0-1-0.4-1.9-1.3-2.4c-0.5-0.3-1.1-0.4-2-0.4h-0.8
				V22H103.7z"/>
			<path class="st33" d="M112.9,13.4h10l-0.9,3h-5.5v4h5.5v3h-5.5v4.2h6.4v3h-10V13.4z M116.3,8.6h2.8l2.7,3.9H119l-1.3-1.9
				l-1.3,1.9h-2.7L116.3,8.6z"/>
		</g>
		<g>
			<path class="st33" d="M62.9,42.9c-0.8,0.5-1.7,0.6-2.5,0.6c-2.6,0-4.1-1.8-4.1-4.3c0-2.5,1.7-4.4,4.3-4.4c0.9,0,1.7,0.2,2.1,0.4
				v1.1c-0.6-0.3-1.3-0.5-2.1-0.5c-1.9,0-3.1,1.5-3.1,3.4c0,2,1.2,3.3,3,3.3c0.8,0,1.4-0.2,2-0.6L62.9,42.9z"/>
			<path class="st33" d="M64.8,40.6c0,1.1,0.7,2,1.9,2c0.6,0,1.1-0.2,1.5-0.4l0.3,0.8c-0.6,0.4-1.3,0.6-2,0.6c-2,0-2.9-1.5-2.9-3.2
				c0-1.9,1-3.1,2.6-3.1c1.6,0,2.5,1.2,2.5,3.2v0.3H64.8z M67.5,39.8c0-0.8-0.4-1.7-1.3-1.7c-0.9,0-1.4,0.8-1.4,1.7H67.5z"/>
			<path class="st33" d="M69.9,37.3h1l0.1,0.7c0.7-0.5,1.3-0.9,2.1-0.9c1,0,1.9,0.6,1.9,2.2v4.1h-1.1v-3.7c0-0.9-0.2-1.5-1-1.5
				c-0.6,0-1.2,0.4-1.7,0.8v4.4h-1.1V37.3z"/>
			<path class="st33" d="M77,42.1v-3.8h-1v-0.9h1V36l1.1-0.4v1.7h1.8l-0.3,0.9h-1.5v3.6c0,0.5,0.2,0.8,0.6,0.8c0.4,0,0.7-0.2,1-0.3
				l0.4,0.8c-0.4,0.3-1,0.5-1.6,0.5C77.5,43.6,77,43,77,42.1z"/>
			<path class="st33" d="M81,37.3h1l0.1,0.7c0.6-0.7,1.1-0.9,1.7-0.9c0.3,0,0.5,0.1,0.7,0.2l-0.4,1c-0.2-0.1-0.4-0.2-0.6-0.2
				c-0.4,0-0.8,0.2-1.4,0.8v4.4H81V37.3z"/>
			<path class="st33" d="M84.8,40.4c0-1.8,1.1-3.2,2.9-3.2c1.7,0,2.9,1.4,2.9,3.2c0,1.8-1.1,3.2-2.9,3.2
				C85.9,43.6,84.8,42.2,84.8,40.4z M89.4,40.4c0-1.3-0.6-2.2-1.7-2.2c-1.1,0-1.7,0.9-1.7,2.2c0,1.3,0.6,2.2,1.7,2.2
				C88.7,42.6,89.4,41.7,89.4,40.4z"/>
			<path class="st33" d="M95,41.8c-0.2-0.4-0.2-0.9-0.2-1.5V35h1.1v5.3c0,0.4,0.1,0.8,0.2,1.2c0.3,0.7,0.9,1.2,1.9,1.2
				c1,0,1.6-0.4,1.9-1.2c0.1-0.3,0.2-0.7,0.2-1.2V35h1.1v5.4c0,0.6-0.1,1.1-0.3,1.5c-0.4,1.1-1.5,1.7-3,1.7
				C96.5,43.6,95.5,43,95,41.8z"/>
			<path class="st33" d="M103.1,37.3h1l0.1,0.7c0.7-0.5,1.3-0.9,2.1-0.9c1,0,1.9,0.6,1.9,2.2v4.1H107v-3.7c0-0.9-0.2-1.5-1-1.5
				c-0.6,0-1.2,0.4-1.7,0.8v4.4h-1.1V37.3z"/>
			<path class="st33" d="M109.6,35.4c0-0.4,0.3-0.7,0.7-0.7c0.4,0,0.7,0.3,0.7,0.7c0,0.4-0.3,0.7-0.7,0.7
				C109.9,36.1,109.6,35.8,109.6,35.4z M109.7,37.3h1.1v6.1h-1.1V37.3z"/>
			<path class="st33" d="M111.8,37.3h1.2l1.7,4.6h0l1.6-4.6h1.2l-2.4,6.1h-0.9L111.8,37.3z"/>
			<path class="st33" d="M119.1,40.6c0,1.1,0.7,2,1.9,2c0.6,0,1.1-0.2,1.5-0.4l0.3,0.8c-0.6,0.4-1.3,0.6-2,0.6c-2,0-2.9-1.5-2.9-3.2
				c0-1.9,1-3.1,2.6-3.1c1.6,0,2.5,1.2,2.5,3.2v0.3H119.1z M121.9,39.8c0-0.8-0.4-1.7-1.3-1.7c-0.9,0-1.4,0.8-1.4,1.7H121.9z"/>
			<path class="st33" d="M124.3,37.3h1l0.1,0.7c0.6-0.7,1.1-0.9,1.7-0.9c0.3,0,0.5,0.1,0.7,0.2l-0.4,1c-0.2-0.1-0.4-0.2-0.6-0.2
				c-0.4,0-0.8,0.2-1.4,0.8v4.4h-1.1V37.3z"/>
			<path class="st33" d="M128.2,42.2c0.4,0.2,0.9,0.5,1.6,0.5c0.7,0,1.2-0.2,1.2-0.9c0-1.2-2.9-0.8-2.9-2.8c0-1,0.8-1.7,2.1-1.7
				c0.6,0,1.2,0.1,1.6,0.3v1c-0.4-0.2-0.9-0.3-1.5-0.3c-0.6,0-1.1,0.2-1.1,0.7c0,1.2,2.9,0.8,2.9,2.9c0,1.2-1.1,1.8-2.3,1.8
				c-0.8,0-1.5-0.3-2-0.5L128.2,42.2z"/>
			<path class="st33" d="M133.2,35.4c0-0.4,0.3-0.7,0.7-0.7c0.4,0,0.7,0.3,0.7,0.7c0,0.4-0.3,0.7-0.7,0.7
				C133.5,36.1,133.2,35.8,133.2,35.4z M133.4,37.3h1.1v6.1h-1.1V37.3z"/>
			<path class="st33" d="M136.7,42.1v-3.8h-1v-0.9h1V36l1.1-0.4v1.7h1.8l-0.3,0.9h-1.5v3.6c0,0.5,0.2,0.8,0.6,0.8
				c0.4,0,0.7-0.2,1-0.3l0.4,0.8c-0.4,0.3-1,0.5-1.6,0.5C137.2,43.6,136.7,43,136.7,42.1z"/>
			<path class="st33" d="M144.2,42.8c-0.5,0.4-1.1,0.8-1.8,0.8c-1.1,0-2-0.7-2-1.9c0-0.8,0.4-1.3,1-1.6c0.4-0.2,0.9-0.3,1.5-0.3
				l1.1,0v-0.3c0-0.9-0.5-1.2-1.3-1.2c-0.7,0-1.2,0.2-1.7,0.5l-0.4-0.8c0.7-0.4,1.5-0.6,2.2-0.6c1.4,0,2.3,0.7,2.3,2.1v2.2
				c0,1,0,1.6,0.1,1.9h-1L144.2,42.8z M143.1,40.5c-0.5,0-0.8,0.1-1.1,0.2c-0.3,0.2-0.5,0.5-0.5,0.9c0,0.6,0.4,1,1.1,1
				c0.7,0,1.2-0.4,1.5-0.7v-1.5L143.1,40.5z M143.1,34.7h1.3l-1.1,1.9h-0.9L143.1,34.7z"/>
			<path class="st33" d="M146.7,37.3h1l0.1,0.7c0.6-0.7,1.1-0.9,1.7-0.9c0.3,0,0.5,0.1,0.7,0.2l-0.4,1c-0.2-0.1-0.4-0.2-0.6-0.2
				c-0.4,0-0.8,0.2-1.4,0.8v4.4h-1.1V37.3z"/>
			<path class="st33" d="M150.9,35.4c0-0.4,0.3-0.7,0.7-0.7c0.4,0,0.7,0.3,0.7,0.7c0,0.4-0.3,0.7-0.7,0.7
				C151.2,36.1,150.9,35.8,150.9,35.4z M151.1,37.3h1.1v6.1h-1.1V37.3z"/>
			<path class="st33" d="M153.5,40.4c0-1.8,1.1-3.2,2.9-3.2c1.7,0,2.9,1.4,2.9,3.2c0,1.8-1.1,3.2-2.9,3.2
				C154.7,43.6,153.5,42.2,153.5,40.4z M158.1,40.4c0-1.3-0.6-2.2-1.7-2.2c-1.1,0-1.7,0.9-1.7,2.2c0,1.3,0.6,2.2,1.7,2.2
				C157.5,42.6,158.1,41.7,158.1,40.4z"/>
			<path class="st33" d="M56.1,54.2c0-2,1.4-3.3,3.2-3.3c0.3,0,0.7,0,1,0.1v-3h1.1v8.8c-0.5,0.3-1.3,0.4-2,0.4
				C57.6,57.3,56.1,56.3,56.1,54.2z M60.3,56.2v-4.2c-0.3-0.1-0.5-0.1-0.9-0.1c-1.2,0-2.1,0.8-2.1,2.3c0,1.3,0.8,2.2,2.1,2.2
				C59.7,56.4,60,56.3,60.3,56.2z"/>
			<path class="st33" d="M64.5,54.4c0,1.1,0.7,2,1.9,2c0.6,0,1.1-0.2,1.5-0.4l0.3,0.8c-0.6,0.4-1.3,0.6-2,0.6c-2,0-2.9-1.5-2.9-3.2
				c0-1.9,1-3.1,2.6-3.1c1.6,0,2.5,1.2,2.5,3.2v0.3H64.5z M67.3,53.6c0-0.8-0.4-1.7-1.3-1.7c-0.9,0-1.4,0.8-1.4,1.7H67.3z"/>
			<path class="st33" d="M71.5,58.5c0.2,0.1,0.5,0.1,0.7,0.1c0.9,0,1.1-0.6,1.1-1.4v-8.5h1.1v8.7c0,1.3-0.6,2.1-2.2,2.1
				c-0.4,0-0.7-0.1-1-0.1L71.5,58.5z"/>
			<path class="st33" d="M76,54.2c0-1.8,1.1-3.2,2.9-3.2c1.7,0,2.9,1.4,2.9,3.2c0,1.8-1.1,3.2-2.9,3.2C77.1,57.3,76,55.9,76,54.2z
				 M80.6,54.2c0-1.3-0.6-2.2-1.7-2.2c-1.1,0-1.7,0.9-1.7,2.2c0,1.3,0.6,2.2,1.7,2.2C79.9,56.4,80.6,55.5,80.6,54.2z"/>
			<path class="st33" d="M86.4,56.5c-0.5,0.4-1.1,0.8-1.8,0.8c-1.1,0-2-0.7-2-1.9c0-0.8,0.4-1.3,1-1.6c0.4-0.2,0.9-0.3,1.5-0.3
				l1.1,0v-0.3c0-0.9-0.5-1.2-1.3-1.2c-0.7,0-1.2,0.2-1.7,0.5L83,51.6c0.7-0.4,1.5-0.6,2.2-0.6c1.4,0,2.3,0.7,2.3,2.1v2.2
				c0,1,0,1.6,0.1,1.9h-1L86.4,56.5z M83.3,49.8c0-0.6,0.4-1,1-1c0.7,0,1.2,0.6,1.6,0.6c0.3,0,0.3-0.2,0.3-0.5H87v0.4
				c0,0.6-0.4,1-1,1c-0.7,0-1.2-0.6-1.7-0.6c-0.3,0-0.3,0.2-0.3,0.5h-0.8V49.8z M85.3,54.3c-0.5,0-0.8,0.1-1.1,0.2
				c-0.3,0.2-0.5,0.5-0.5,0.9c0,0.6,0.4,1,1.1,1c0.7,0,1.2-0.4,1.5-0.7v-1.5L85.3,54.3z"/>
			<path class="st33" d="M88.6,54.2c0-1.8,1.1-3.2,2.9-3.2c1.7,0,2.9,1.4,2.9,3.2c0,1.8-1.1,3.2-2.9,3.2
				C89.8,57.3,88.6,55.9,88.6,54.2z M93.2,54.2c0-1.3-0.6-2.2-1.7-2.2c-1.1,0-1.7,0.9-1.7,2.2c0,1.3,0.6,2.2,1.7,2.2
				C92.6,56.4,93.2,55.5,93.2,54.2z"/>
			<path class="st33" d="M98.7,48.7h1.7c0.8,0,1.4,0.1,1.9,0.4c0.8,0.4,1.3,1.2,1.3,2.3c0,1-0.4,1.9-1.5,2.4c-0.4,0.2-1,0.3-1.7,0.3
				h-0.5v3.1h-1.1V48.7z M100.4,53.2c0.5,0,0.9-0.1,1.2-0.2c0.6-0.3,0.8-0.8,0.8-1.5c0-0.7-0.3-1.2-0.8-1.5
				c-0.3-0.2-0.7-0.3-1.2-0.3h-0.6v3.5H100.4z"/>
			<path class="st33" d="M105.6,54.4c0,1.1,0.7,2,1.9,2c0.6,0,1.1-0.2,1.5-0.4l0.3,0.8c-0.6,0.4-1.3,0.6-2,0.6c-2,0-2.9-1.5-2.9-3.2
				c0-1.9,1-3.1,2.6-3.1c1.6,0,2.5,1.2,2.5,3.2v0.3H105.6z M108.3,53.6c0-0.8-0.4-1.7-1.3-1.7c-0.9,0-1.4,0.8-1.4,1.7H108.3z"/>
			<path class="st33" d="M110.6,55.9c0.4,0.2,0.9,0.5,1.6,0.5c0.7,0,1.2-0.2,1.2-0.9c0-1.2-2.9-0.8-2.9-2.8c0-1,0.8-1.7,2.1-1.7
				c0.6,0,1.2,0.1,1.6,0.3v1c-0.4-0.2-0.9-0.3-1.5-0.3c-0.6,0-1.1,0.2-1.1,0.7c0,1.2,2.9,0.8,2.9,2.9c0,1.2-1.1,1.8-2.3,1.8
				c-0.8,0-1.5-0.3-2-0.5L110.6,55.9z"/>
			<path class="st33" d="M115.6,55.9c0.4,0.2,0.9,0.5,1.6,0.5c0.7,0,1.2-0.2,1.2-0.9c0-1.2-2.9-0.8-2.9-2.8c0-1,0.8-1.7,2.1-1.7
				c0.6,0,1.2,0.1,1.6,0.3v1c-0.4-0.2-0.9-0.3-1.5-0.3c-0.6,0-1.1,0.2-1.1,0.7c0,1.2,2.9,0.8,2.9,2.9c0,1.2-1.1,1.8-2.3,1.8
				c-0.8,0-1.5-0.3-2-0.5L115.6,55.9z"/>
			<path class="st33" d="M120.4,54.2c0-1.8,1.1-3.2,2.9-3.2c1.7,0,2.9,1.4,2.9,3.2c0,1.8-1.1,3.2-2.9,3.2
				C121.5,57.3,120.4,55.9,120.4,54.2z M125,54.2c0-1.3-0.6-2.2-1.7-2.2c-1.1,0-1.7,0.9-1.7,2.2c0,1.3,0.6,2.2,1.7,2.2
				C124.3,56.4,125,55.5,125,54.2z"/>
			<path class="st33" d="M130.8,56.5c-0.5,0.4-1.1,0.8-1.8,0.8c-1.1,0-2-0.7-2-1.9c0-0.8,0.4-1.3,1-1.6c0.4-0.2,0.9-0.3,1.5-0.3
				l1.1,0v-0.3c0-0.9-0.5-1.2-1.3-1.2c-0.7,0-1.2,0.2-1.7,0.5l-0.4-0.8c0.7-0.4,1.5-0.6,2.2-0.6c1.4,0,2.3,0.7,2.3,2.1v2.2
				c0,1,0,1.6,0.1,1.9h-1L130.8,56.5z M129.7,54.3c-0.5,0-0.8,0.1-1.1,0.2c-0.3,0.2-0.5,0.5-0.5,0.9c0,0.6,0.4,1,1.1,1
				c0.7,0,1.2-0.4,1.5-0.7v-1.5L129.7,54.3z"/>
		</g>
	</g>
</g>
</svg>
